<?xml version="1.0" encoding="UTF-8"?>
<svg width="180px" height="180px" viewBox="0 0 180 180" version="1.1" xmlns="http://www.w3.org/2000/svg" xmlns:xlink="http://www.w3.org/1999/xlink">
    <!-- Generator: Sketch 49.3 (51167) - http://www.bohemiancoding.com/sketch -->
    <title>cake</title>
    <desc>Created with Sketch.</desc>
    <defs></defs>
    <g id="Page-1" stroke="none" stroke-width="1" fill="none" fill-rule="evenodd">
        <g id="cake" transform="translate(10.000000, 10.000000)">
            <g id="cake-body" transform="translate(32.000000, 70.000000)">
                <path d="M0.578922755,4.08258929 L0.578922755,34.2322072 L91.5673897,58.8236661 L91.2255722,23.1185799 C91.0110595,17.874076 87.360419,14.1922744 80.2736507,12.0731751 C73.1868824,9.95407584 51.319578,6.00545179 14.6717375,0.22730297 L0.578922755,4.08258929 Z" id="cake-base" fill="#F4F1C4"></path>
                <polygon id="Path-4" fill="#B31717" points="0.647887324 14.9383639 91.5395508 39.6137159 91.5395508 36.0226139 0.647887324 11.021978"></polygon>
                <polygon id="Path-4-Copy" fill="#B31717" points="0.647887324 26.6086936 91.5395508 51.2840455 91.5395508 47.6929435 0.647887324 22.6923077"></polygon>
            </g>
            <path d="M122,93.6050761 C119.885719,94.5350254 116.677096,95 112.374129,95 C105.91968,95 105.504598,87.0457781 94.5745451,85.3478843 C83.6444919,83.6499906 86.132471,87.0457781 77.1887881,87.0457781 C68.2451052,87.0457781 61.6602372,75.7222785 55.6898398,77.678959 C49.7194425,79.6356395 37.1302028,80.6419098 32,75.8499361 L32,63.8781176 C32,53.7307673 70.0458887,40.9573085 94.8341276,46.2294222 L121.918489,83.0200657 C121.918489,83.0200657 122,93.6050761 122,93.6050761 Z" id="frosting" fill="#BB7CBB"></path>
            <g id="sprinkles" transform="translate(39.000000, 50.000000)">
                <rect id="Rectangle" fill="#9CF81C" transform="translate(49.178571, 2.938776) rotate(15.000000) translate(-49.178571, -2.938776) " x="48.2142857" y="0.653061224" width="1.92857143" height="4.57142857" rx="0.964285714"></rect>
                <rect id="Rectangle-Copy" fill="#21F81C" transform="translate(61.392857, 17.306122) rotate(-86.000000) translate(-61.392857, -17.306122) " x="60.4285714" y="15.0204082" width="1.92857143" height="4.57142857" rx="0.964285714"></rect>
                <rect id="Rectangle-Copy-2" fill="#F8E71C" transform="translate(32.660411, 11.529573) rotate(111.000000) translate(-32.660411, -11.529573) " x="31.6961251" y="9.24385859" width="1.92857143" height="4.57142857" rx="0.964285714"></rect>
                <rect id="Rectangle-Copy-3" fill="#621CF8" transform="translate(42.107143, 24.489796) rotate(53.000000) translate(-42.107143, -24.489796) " x="41.1428571" y="22.2040816" width="1.92857143" height="4.57142857" rx="0.964285714"></rect>
                <rect id="Rectangle-Copy-4" fill="#1C63F8" transform="translate(69.750000, 29.061224) rotate(-27.000000) translate(-69.750000, -29.061224) " x="68.7857143" y="26.7755102" width="1.92857143" height="4.57142857" rx="0.964285714"></rect>
                <rect id="Rectangle-Copy-5" fill="#1CF8C1" transform="translate(20.250000, 18.612245) rotate(-82.000000) translate(-20.250000, -18.612245) " x="19.2857143" y="16.3265306" width="1.92857143" height="4.57142857" rx="0.964285714"></rect>
                <rect id="Rectangle-Copy-6" fill="#D11CF8" transform="translate(17.035714, 5.551020) rotate(-44.000000) translate(-17.035714, -5.551020) " x="16.0714286" y="3.26530612" width="1.92857143" height="4.57142857" rx="0.964285714"></rect>
                <rect id="Rectangle-Copy-7" fill="#F8A91C" transform="translate(2.250000, 15.346939) rotate(42.000000) translate(-2.250000, -15.346939) " x="1.28571429" y="13.0612245" width="1.92857143" height="4.57142857" rx="0.964285714"></rect>
                <rect id="Rectangle-Copy-8" fill="#F81C8D" transform="translate(32.464286, 2.938776) rotate(-126.000000) translate(-32.464286, -2.938776) " x="31.5" y="0.653061224" width="1.92857143" height="4.57142857" rx="0.964285714"></rect>
            </g>
            <g id="candle" transform="translate(79.000000, 22.000000)">
                <rect id="base" fill="#F2F2F2" x="0.321428571" y="12.7825928" width="8.16428559" height="31.9565217" rx="2.5"></rect>
                <rect id="wick" fill="#000000" x="3.85714286" y="5.86956522" width="1.28571429" height="7.17391304" rx="0.642857143"></rect>
                <path d="M2.31627133,3.97826087 C2.83055705,2.2173913 2.83055705,0.913043478 2.70198562,0 C4.11627133,0.847826087 6.23769991,2.41304348 6.55912848,4.43478261 C6.75198562,5.67391304 6.30198562,6.97826087 5.14484276,8.34782609 L5.14484276,7.04347826 C5.14484276,6.65217391 4.88769991,6.39130435 4.50198562,6.39130435 C4.11627133,6.39130435 3.85912848,6.65217391 3.85912848,7.04347826 L3.85912848,8.47826087 C2.95912848,7.69565217 1.73769991,6.13043478 2.31627133,3.97826087 Z" id="Path" fill="#FFCD00"></path>
                <path d="M0.964285714,13.1086957 L8.48571429,18.5217391 L8.48571429,23.1521739 L0.385714286,17.3478261 L0.385714286,14.5434783 C0.321428571,13.9565217 0.578571429,13.4347826 0.964285714,13.1086957 Z" id="Path" fill="#F86600"></path>
                <polygon id="Path" fill="#4FA0DE" points="0.321428571 35.9347826 0.321428571 31.3043478 8.48571429 37.173913 8.48571429 41.7391304"></polygon>
                <path d="M0.321428571,25.1086957 L8.42142857,30.9130435 L8.42142857,35.5434783 L0.321428571,29.7391304 C0.321428571,29.7391304 0.321428571,29.7391304 0.257142857,29.7391304 L0.257142857,25.1086957 L0.321428571,25.1086957 Z" id="Path" fill="#28BE19"></path>
                <polygon id="Path" fill="#EEDB1E" points="8.48571429 29.3478261 0.321428571 23.4782609 0.321428571 18.9130435 8.42142857 24.7173913 8.42142857 29.3478261"></polygon>
                <path d="M6.75,43.9565217 L2.05714286,43.9565217 C1.09285714,43.9565217 0.321428571,43.173913 0.321428571,42.1956522 L0.321428571,37.5 L8.16428571,43.1086957 C7.90714286,43.6304348 7.39285714,43.9565217 6.75,43.9565217 Z" id="Path" fill="#4E20C1"></path>
                <path d="M8.48571429,14.4782609 L8.48571429,16.9565217 L2.63571429,12.7826087 L6.75,12.7826087 C7.71428571,12.7173913 8.48571429,13.5 8.48571429,14.4782609 Z" id="Path" fill="#FF4E4E"></path>
                <path d="M4.11428571,16.1376812 C4.11428571,16.1376812 4.05,16.0724638 4.05,16.0724638 L3.34285714,16.2028986 L2.89285714,15.6811594 C2.89285714,15.6811594 2.82857143,15.615942 2.82857143,15.6811594 C2.82857143,15.7463768 2.76428571,15.7463768 2.76428571,15.7463768 L2.63571429,16.4637681 L1.99285714,16.7246377 C1.99285714,16.7246377 1.92857143,16.7898551 1.92857143,16.7898551 C1.92857143,16.7898551 1.92857143,16.8550725 1.99285714,16.8550725 L2.57142857,17.1811594 L2.63571429,17.8985507 C2.63571429,17.8985507 2.63571429,17.9637681 2.7,17.9637681 C2.7,17.9637681 2.76428571,17.9637681 2.76428571,17.9637681 L3.27857143,17.5072464 L3.98571429,17.6376812 C3.98571429,17.6376812 4.05,17.6376812 4.05,17.6376812 C4.05,17.6376812 4.05,17.5724638 4.05,17.5724638 L3.72857143,16.9202899 L4.05,16.3333333 C4.11428571,16.2028986 4.11428571,16.1376812 4.11428571,16.1376812 Z" id="Shape" fill="#DEF20A" fill-rule="nonzero"></path>
                <path d="M2.82857143,35.115942 C2.82857143,35.115942 2.76428571,35.0507246 2.76428571,35.0507246 L2.05714286,35.115942 L1.60714286,34.5942029 C1.60714286,34.5942029 1.54285714,34.5289855 1.54285714,34.5942029 C1.54285714,34.5942029 1.47857143,34.6594203 1.47857143,34.6594203 L1.35,35.3768116 L0.707142857,35.6376812 C0.707142857,35.6376812 0.642857143,35.7028986 0.642857143,35.7028986 C0.642857143,35.7028986 0.642857143,35.7681159 0.707142857,35.7681159 L1.28571429,36.0942029 L1.35,36.8115942 C1.35,36.8115942 1.35,36.8768116 1.41428571,36.8768116 C1.41428571,36.8768116 1.47857143,36.8768116 1.47857143,36.8768116 L1.99285714,36.4202899 L2.7,36.5507246 C2.7,36.5507246 2.76428571,36.5507246 2.76428571,36.5507246 C2.76428571,36.5507246 2.76428571,36.4855072 2.76428571,36.4855072 L2.44285714,35.8333333 L2.76428571,35.2463768 C2.82857143,35.1811594 2.82857143,35.115942 2.82857143,35.115942 Z" id="Shape" fill="#DEF20A" fill-rule="nonzero"></path>
                <path d="M6.62142857,29.7681159 L5.91428571,29.8985507 L5.46428571,29.3768116 C5.46428571,29.3768116 5.4,29.3115942 5.4,29.3768116 C5.4,29.3768116 5.33571429,29.442029 5.33571429,29.442029 L5.20714286,30.1594203 L4.56428571,30.4202899 C4.56428571,30.4202899 4.5,30.4855072 4.5,30.4855072 C4.5,30.4855072 4.5,30.5507246 4.56428571,30.5507246 L5.14285714,30.8768116 L5.20714286,31.5942029 C5.20714286,31.5942029 5.20714286,31.6594203 5.27142857,31.6594203 C5.27142857,31.6594203 5.33571429,31.6594203 5.33571429,31.6594203 L5.85,31.2028986 L6.55714286,31.3333333 C6.55714286,31.3333333 6.62142857,31.3333333 6.62142857,31.3333333 C6.62142857,31.3333333 6.62142857,31.2681159 6.62142857,31.2681159 L6.3,30.615942 L6.68571429,29.8985507 C6.68571429,29.8985507 6.68571429,29.8333333 6.68571429,29.8333333 C6.68571429,29.8333333 6.62142857,29.7681159 6.62142857,29.7681159 Z" id="Shape" fill="#DEF20A" fill-rule="nonzero"></path>
            </g>
            <path d="M71.2529212,65.5219681 C73.1877562,64.6593137 75.9911214,64.2049315 77.2371651,64.2049315 C78.4832088,64.2049315 83.5190042,66.1804864 85.277832,65.5219681 C87.0366599,64.8634498 89.494852,63.4792175 90.747426,64.2049315 C91.5824753,64.6887409 92,65.4834008 92,66.5889112 L82.1846459,68 C73.6069394,66.9230816 69.9630312,66.097071 71.2529212,65.5219681 Z" id="frosting" fill="#BB7CBB"></path>
            <circle id="Oval-2" stroke="#F80000" stroke-width="20" cx="80" cy="80" r="80"></circle>
            <path d="M21.3232292,27.3232292 L132.741946,138.741946" id="Line" stroke="#F80000" stroke-width="20" stroke-linecap="square"></path>
        </g>
    </g>
</svg>