<?xml version="1.0" encoding="UTF-8"?>
<svg width="180px" height="187px" viewBox="0 0 180 187" version="1.1" xmlns="http://www.w3.org/2000/svg" xmlns:xlink="http://www.w3.org/1999/xlink">
    <!-- Generator: Sketch 49.3 (51167) - http://www.bohemiancoding.com/sketch -->
    <title>dress</title>
    <desc>Created with Sketch.</desc>
    <defs>
        <polygon id="path-1" points="0 0.240051502 179.986329 0.240051502 179.986329 176.999902 0 176.999902"></polygon>
        <polygon id="path-3" points="0 0.669762321 179.986329 0.669762321 179.986329 132.999826 0 132.999826"></polygon>
    </defs>
    <g id="Page-1" stroke="none" stroke-width="1" fill="none" fill-rule="evenodd">
        <g id="dress">
            <g id="Group-3" transform="translate(0.000000, 10.000000)">
                <mask id="mask-2" fill="white">
                    <use xlink:href="#path-1"></use>
                </mask>
                <g id="Clip-2"></g>
                <path d="M58.4410633,0.240051502 C56.2856203,4.95448069 55.114481,9.67574678 58.3392911,14.4289185 C58.959038,18.8767082 57.5630886,22.6081416 54.3656203,25.7204549 C53.7177722,26.35097 53.5035949,27.2017854 53.492962,28.0981803 M47.6706835,41.8198584 C46.5086582,42.7656309 45.3739747,43.7463476 44.1808101,44.6510987 C34.2922025,52.1511888 26.3547342,61.3270815 20.4276456,72.2365107 C6.44081013,96.3533305 0.846379747,122.66176 0.00334177215,150.227421 C-0.0695696203,152.611223 0.998278481,154.32197 2.45574684,155.968906 C7.21321519,161.343476 13.3848608,164.502888 19.9499241,166.945944 C33.6709367,172.051597 47.9737215,174.349558 62.4922025,175.663764 C90.3519494,178.185064 118.046127,177.292468 145.489671,171.661133 C155.404861,169.626013 165.184861,167.002159 173.694228,161.107223 C177.898025,158.1947 180.089924,154.573416 179.982835,149.047674 C179.441316,121.044451 172.943848,94.7785622 158.242329,70.7483433 C157.493468,69.4675622 156.715747,68.2027339 156.001823,66.9029614 C153.907139,63.089485 150.468911,60.2111459 148.603595,56.2404206" id="Fill-1" fill="#FEFEFE" mask="url(#mask-2)"></path>
            </g>
            <g id="Group-6" transform="translate(0.000000, 54.000000)">
                <mask id="mask-4" fill="white">
                    <use xlink:href="#path-3"></use>
                </mask>
                <g id="Clip-5"></g>
                <path d="M158.241494,26.700244 C172.943772,50.741324 179.441241,77.019084 179.982759,105.035724 C180.089848,110.563204 177.897949,114.186884 173.694152,117.100724 C165.184785,122.998324 155.404785,125.622604 145.489595,127.658644 C118.046051,133.292524 90.3518734,134.185524 62.4921266,131.663084 C47.9736456,130.349044 33.6708608,128.049284 19.9498481,122.941324 C13.3847848,120.497164 7.21313924,117.336324 2.45567089,111.959324 C0.998202532,110.311644 -0.0696455696,108.600884 0.00326582278,106.216004 C0.846303797,78.637124 6.44073418,52.316804 20.4275696,28.189084 C27.8782025,27.933724 35.1913671,26.825644 42.3495949,24.709044 C58.6695949,19.883804 72.7057975,10.567724 86.9994684,1.804164 C89.2749114,0.408804 90.8478228,0.306204 93.1544051,1.465964 C105.008582,7.425124 116.634911,13.836484 128.719975,19.339644 C138.120987,23.620724 147.962506,26.007884 158.241494,26.700244" id="Fill-4" fill="#A459A2" mask="url(#mask-4)"></path>
            </g>
            <path d="M70.4137752,45.3816573 C70.2236465,45.4991607 70.0403624,45.6120861 69.8570783,45.7257745 C70.0479676,45.8264917 70.2403778,46.0096139 70.428225,46.0057989 C70.6168327,46.0019838 70.8016379,45.8112315 70.987964,45.7028842 C70.7993563,45.5968259 70.6107486,45.4915306 70.4137752,45.3816573 Z M30.5125981,73.5786663 C31.9758289,73.5962155 32.7530751,72.495193 33.58736,71.5826339 C43.0017745,61.2888753 53.9433031,53.1101785 66.6766048,47.3837937 C67.1032537,47.1922783 67.9238493,47.1297116 67.651585,46.013429 C59.1954193,47.8484664 51.8252689,51.8039066 45.1122035,57.0366244 C39.233423,61.6184953 33.7181686,66.5856859 30.482938,73.5527239 C30.2943303,73.8289333 30.1057226,74.1043797 29.9178754,74.380589 C30.0144608,74.4462078 30.1118067,74.5118266 30.2091526,74.5766824 L30.5125981,73.5786663 Z M102.066407,42.2365329 C115.768605,42.2525561 127.244776,47.9980162 137.63417,56.346101 C141.07474,59.1104837 144.186007,62.2868915 147.450137,65.2740729 C147.761948,65.5029757 148.072238,65.7326415 148.382528,65.9623073 C148.382528,65.9623073 148.348305,65.933313 148.348305,65.933313 C150.21689,69.9215626 153.658981,72.8126049 155.756481,76.6429116 C156.471365,77.9484206 157.250132,79.2188311 158,80.5052648 C147.70643,79.8101633 137.852438,77.413551 128.438024,73.1155196 C116.33671,67.5905692 104.694747,61.1538227 92.8246297,55.1710667 C90.5149458,54.0067145 88.9399193,54.1097207 86.6614165,55.5106058 C72.3485253,64.3088662 58.2934485,73.6610713 41.9515034,78.5061804 C34.78365,80.6311613 27.4606516,81.7428659 20,82 C25.9358192,71.0424233 33.8839609,61.8260339 43.7851049,54.292843 C44.9798739,53.3840989 46.1160832,52.3990539 47.2796711,51.4491073 C47.2796711,51.4491073 47.2386033,51.4727606 47.2386033,51.4727606 C48.927707,51.1522967 50.0631558,50.3450328 49.920179,48.4108042 L49.869985,48.4260644 C50.9674081,50.0802686 52.1020964,48.9189684 53.1242285,48.390203 C60.0532801,44.8101633 67.3884468,42.6737372 75.1502623,42 C75.3594039,46.4132458 78.1938431,48.2185259 82.0564985,49.0166336 C82.5477912,49.1181138 83.0329997,49.2730047 83.4999559,49.45689 C91.0153646,52.4150771 99.0965964,49.2760568 102.066407,42.2365329 Z" id="Fill-7" fill="#BB7AB2"></path>
            <path d="M92.2481855,41.244497 C90.9846456,39.7842582 90.6180819,37.2505838 88.7349653,37.0667188 C87.0705678,36.9034528 85.7681614,39.0617681 85.5860226,40.6318681 C85.3909284,42.3133551 86.6697101,44.3595204 88.3081967,44.5929755 C90.0998628,44.8477925 90.9534,42.6803221 92.2481855,41.244497 M93.8897205,26.0584717 C92.1254896,23.9726343 90.2911466,21.7784616 88.4034576,19.6315902 C88.2746649,19.4858715 87.7061482,19.6247239 87.397503,19.7589987 C83.3912126,21.498468 82.059847,27.1731054 84.9031929,30.4025676 C85.5707809,31.1609152 86.309243,31.8582288 87.0362738,32.5608828 C87.5842143,33.0903529 88.3211522,33.7998733 88.9811194,33.1246845 C90.9053886,31.1571006 92.7473524,29.0895734 93.8897205,26.0584717 M102.195705,42.671167 C99.2197557,49.7099146 91.1225833,52.8478257 83.5908794,49.8899649 C83.1229581,49.7060999 82.6367467,49.5512261 82.1452007,49.4497571 C78.2737997,48.6517374 75.4335022,46.8466564 75.2239283,42.4346602 C73.7851084,37.5908484 72.069651,32.8057818 70.9966328,27.8810999 C70.2093971,24.2633088 68.5610033,22.9289527 65.0409244,23.8452258 C62.6944591,24.0214615 60.3479938,24.1969343 58.0007664,24.37317 C54.7649458,19.5995473 55.9408458,14.8579675 58.1036481,10.1240169 C62.6174883,5.08108156 67.7227078,1.01011291 74.6919917,0 C74.7102818,1.65249589 74.7773454,3.30651764 74.7323823,4.95672476 C74.6973263,6.21707712 75.1766789,6.8350465 76.4691781,6.87319275 C81.4768506,7.01967438 84.9534906,9.59530972 87.4363694,14.4810824 C89.1922174,10.1301203 92.2237988,7.7932805 96.2110369,7.32484445 C99.3935115,6.95101112 100.311064,5.57698291 99.8484773,2.6687122 C99.7097775,1.80202922 99.837046,0.892622436 99.8423806,0.00305170063 C113.002096,0.364678226 120.831775,11.4240413 117.044966,24.2991663 C114.544559,24.3815622 112.04339,24.4639581 109.541459,24.5455911 C106.672965,23.92457 105.295112,24.7996452 104.922451,28.0062196 C104.350124,32.9354791 102.432714,37.6511195 102.195705,42.671167" id="Fill-9" fill="#A45AA2"></path>
            <path d="M57.8743346,23.5135772 C60.226329,23.3421374 62.5783234,23.1714398 64.9303177,23 C65.6055899,30.3882389 61.273612,35.3622195 56.2442092,40 C55.4925488,38.6336768 54.4521407,37.5493757 53,36.8680695 C53.0106944,35.9930586 53.2261092,35.1610932 53.8777011,34.5450974 C57.0936466,31.504453 58.4976627,27.8596874 57.8743346,23.5135772" id="Fill-11" fill="#BD7DB3"></path>
            <path d="M110,24.2499659 C112.42214,24.1671598 114.845018,24.0835799 117.266421,24 C116.773432,29.0264032 119.439852,32.3564438 122.731365,35.4194929 C123.701107,36.3218464 124.890037,37.189375 125,38.7859061 C123.737269,39.5241954 122.474539,40.2617107 121.212546,41 C116.736531,39.1689807 114.054613,35.3591296 111.924723,31.1832294 C110.865683,29.1068876 110.616236,26.5754996 110,24.2499659" id="Fill-13" fill="#BD7DB3"></path>
            <path d="M149,65.902 C148.667482,65.601 148.334148,65.3 148,65 C148.332518,65.301 148.666667,65.602 149,65.902" id="Fill-15" fill="#FEFEFE"></path>
            <path d="M56.3979724,40.6530265 C61.3496886,35.9134601 65.6147529,30.8295014 64.9499113,23.2779035 C68.424536,22.3668569 70.0512921,23.6936017 70.8281941,27.2907566 C71.8871273,32.1873477 73.5800668,36.9451199 75,41.7613022 C67.3242381,42.4303639 60.070395,44.5543693 53.2181643,48.1135956 C52.2073644,48.6392869 51.0852562,49.7945942 50,48.1492485" id="Fill-17" fill="#FEFEFE"></path>
            <path d="M31,72.9743685 C34.2165562,66.1500595 39.6979309,61.2853758 45.5414044,56.7966233 C52.2141522,51.6711046 59.5407946,47.7966968 67.9461738,46 C68.216803,47.0926667 67.4003798,47.1539517 66.9770492,47.3415436 C54.3202217,52.9506158 43.4444063,60.9617611 34.0865333,71.0446384 C33.256503,71.9385025 32.4846807,73.0177164 31.0302379,72.9997794 L31,72.9743685 Z" id="Fill-19" fill="#A65DA3"></path>
            <path d="M48,51 C48.1127086,49.3172822 48.680489,47.9859093 50.9863551,48.0001126 C51.14652,49.8943849 49.881302,50.6860322 48,51" id="Fill-21" fill="#FEFEFE"></path>
            <path d="M70.4922663,45 C70.6664425,45.144 70.8332213,45.282 71,45.421 C70.8352387,45.563 70.6718225,45.813 70.5050437,45.818 C70.3389375,45.823 70.1687962,45.583 70,45.451 C70.1620713,45.302 70.3241426,45.154 70.4922663,45" id="Fill-23" fill="#A65DA3"></path>
            <path d="M30.783,74.0253165 L30.384,75 C30.256,74.9359643 30.128,74.8719285 30,74.8078928 C30.248,74.5390916 30.496,74.2695458 30.743,74 C30.743,74 30.783,74.0253165 30.783,74.0253165" id="Fill-25" fill="#A65DA3"></path>
            <path d="M94,25.5675599 C92.9124859,28.6356371 91.158969,30.7291577 89.327099,32.7207437 C88.698822,33.4033967 87.9972701,32.6859933 87.4756406,32.1500643 C86.7835202,31.4380666 86.0805174,30.7322466 85.4449854,29.9654204 C82.7381707,26.6957907 84.0056072,20.9519301 87.8195243,19.1912414 C88.113349,19.0553286 88.6545669,18.9155547 88.7771752,19.0630509 C90.5742216,21.2353392 92.3204835,23.456278 94,25.5675599" id="Fill-27" fill="#BB7AB2"></path>
            <path d="M93,41.4327674 C91.6435679,42.9530464 90.7493926,45.2480053 88.8724227,44.9782002 C87.1559254,44.7310135 85.8162592,42.5644948 86.0206421,40.7841043 C86.2114527,39.1216526 87.5758685,36.8363873 89.3195104,37.0092564 C91.2922848,37.2039361 91.6763011,39.8866389 93,41.4327674" id="Fill-29" fill="#BB7AB2"></path>
        </g>
    </g>
</svg>