<?xml version="1.0" encoding="UTF-8"?>
<svg width="162px" height="161px" viewBox="0 0 162 161" version="1.1" xmlns="http://www.w3.org/2000/svg" xmlns:xlink="http://www.w3.org/1999/xlink">
    <!-- Generator: Sketch 49.3 (51167) - http://www.bohemiancoding.com/sketch -->
    <title>drumstick</title>
    <desc>Created with Sketch.</desc>
    <defs></defs>
    <g id="Page-1" stroke="none" stroke-width="1" fill="none" fill-rule="evenodd">
        <g id="drumstick" transform="translate(81.014058, 80.052914) scale(1, -1) translate(-81.014058, -80.052914) translate(0.514058, -0.447086)">
            <path d="M97.6246,63.1866 L93.4533,50.6609 L101.8962,42.2121 L106.1737,37.9464 L110.9586,33.1497 L115.3069,28.8073 C113.5723,28.0816 111.9439,27.0314 110.5338,25.6272 C110.463,25.5564 110.4158,25.4797 110.3568,25.4089 C104.8049,19.6446 104.8462,10.4524 110.5338,4.7589 C116.2863,-0.9936 125.6437,-0.9936 131.3903,4.7589 C136.4289,9.7975 137.0484,17.5973 133.2606,23.3203 L133.6795,23.7451 L137.4378,27.4916 L137.8567,27.9164 C143.5797,24.1345 151.3795,24.7599 156.4122,29.7926 C162.1647,35.5451 162.1647,44.9025 156.4122,50.6491 C150.6597,56.4016 141.3023,56.4016 135.5557,50.6491 C135.4849,50.5783 135.4495,50.5016 135.3846,50.4308 C133.9214,48.9086 132.8594,47.1563 132.1809,45.2919 L127.7559,49.7169 L122.8471,54.6257 L110.1326,67.3343 L97.6246,63.1866 Z" id="Path" stroke="#000000" fill="#FFFFFF"></path>
            <path d="M93.4592,42.3183 C85.1107,50.6609 72.6027,62.5199 55.2508,62.5199 C30.8956,62.5199 15.1131,78.9042 14.2812,79.7951 C-4.233,98.3034 -4.233,128.1928 14.1986,146.6244 C32.6243,165.0619 62.5078,165.0619 80.9453,146.6244 C89.2997,138.2818 96.9697,129.2725 96.9697,104.2388 C96.9697,88.2203 118.4929,67.3638 118.4929,67.3638 L93.4592,42.3183 Z" id="Shape" fill="#693307" fill-rule="nonzero"></path>
        </g>
    </g>
</svg>