<?xml version="1.0" encoding="UTF-8"?>
<svg width="201px" height="158px" viewBox="0 0 201 158" version="1.1" xmlns="http://www.w3.org/2000/svg" xmlns:xlink="http://www.w3.org/1999/xlink">
    <!-- Generator: Sketch 49.3 (51167) - http://www.bohemiancoding.com/sketch -->
    <title>hat</title>
    <desc>Created with Sketch.</desc>
    <defs>
        <polygon id="path-1" points="54.5 0 109 117 0 117"></polygon>
    </defs>
    <g id="Page-1" stroke="none" stroke-width="1" fill="none" fill-rule="evenodd">
        <g id="hat" transform="translate(0.000000, -12.000000)">
            <path d="M169.469664,73.7163608 C169.528472,68.0143638 169.528472,64.2526039 169.469664,62.4310809 C169.19448,53.9075292 168.846429,51.369697 168.425511,54.8175843 C167.591742,61.6472819 163.515796,81.1650158 143.743659,81.1650158 C123.971521,81.1650158 115.409214,41.615253 88.5831585,38.8297493 C61.7571033,36.0442456 54.5303165,61.1286749 52.9603837,72.263634 C56.0515279,61.5657602 67.1134103,37.9206803 93.1734434,44.8684095 C119.233477,51.8161386 121.503422,92.2184182 141.032132,95.3114619 C160.560841,98.4045057 167.639851,79.7646859 169.531756,73.1495034" id="frill-copy" stroke="#5B0D67" fill="#9003A6" opacity="0.518172554" transform="translate(111.246070, 67.135164) rotate(18.000000) translate(-111.246070, -67.135164) "></path>
            <path d="M168.469664,46.7163608 C168.528472,41.0143638 168.528472,37.2526039 168.469664,35.4310809 C168.19448,26.9075292 167.846429,24.369697 167.425511,27.8175843 C166.591742,34.6472819 162.515796,54.1650158 142.743659,54.1650158 C122.971521,54.1650158 114.409214,14.615253 87.5831585,11.8297493 C60.7571033,9.04424555 53.5303165,34.1286749 51.9603837,45.263634 C55.0515279,34.5657602 66.1134103,10.9206803 92.1734434,17.8684095 C118.233477,24.8161386 120.503422,65.2184182 140.032132,68.3114619 C159.560841,71.4045057 166.639851,52.7646859 168.531756,46.1495034" id="frill-copy-2" stroke="#5B0D67" fill="#9003A6" opacity="0.518172554" transform="translate(110.246070, 40.135164) rotate(-12.000000) translate(-110.246070, -40.135164) "></path>
            <path d="M200.128272,56.7230418 C200.201525,49.6204233 200.201525,44.9346358 200.128272,42.6656795 C199.785493,32.0484279 199.351948,28.8872102 198.827637,33.1820262 C197.789062,41.6893504 192.711914,66.0013621 168.083008,66.0013621 C143.454102,66.0013621 132.788574,16.7367137 99.3730469,13.2669871 C65.9575195,9.79726057 56.9555664,41.0433543 55,54.9134715 C58.8504437,41.587804 72.6295338,12.1346172 105.090876,20.7889658 C137.552218,29.4433144 140.379746,79.7698893 164.705429,83.6226991 C189.031113,87.4755089 197.84899,64.2570594 200.205616,56.0169432" id="frill" stroke="#5B0D67" fill="#9003A6"></path>
            <g id="hat-shape" transform="translate(0.000000, 53.000000)">
                <mask id="mask-2" fill="white">
                    <use xlink:href="#path-1"></use>
                </mask>
                <use id="Mask" fill="#00CC20" xlink:href="#path-1"></use>
                <g id="Group" mask="url(#mask-2)">
                    <g transform="translate(-6.000000, 16.000000)">
                        <circle id="Oval" fill="#D31D1D" cx="51" cy="74" r="14"></circle>
                        <circle id="Oval-Copy-5" fill="#D31D74" cx="20" cy="46" r="14"></circle>
                        <circle id="Oval-Copy" fill="#F5A623" cx="79" cy="42" r="14"></circle>
                        <circle id="Oval-Copy-2" fill="#4A90E2" cx="93" cy="94" r="14"></circle>
                        <circle id="Oval-Copy-3" fill="#1D5ED3" cx="48" cy="14" r="14"></circle>
                        <circle id="Oval-Copy-4" fill="#F8E71C" cx="14" cy="90" r="14"></circle>
                    </g>
                </g>
            </g>
        </g>
    </g>
</svg>