<?xml version="1.0" encoding="UTF-8"?>
<svg width="171px" height="165px" viewBox="0 0 171 165" version="1.1" xmlns="http://www.w3.org/2000/svg" xmlns:xlink="http://www.w3.org/1999/xlink">
    <!-- Generator: Sketch 49.3 (51167) - http://www.bohemiancoding.com/sketch -->
    <title>noodles</title>
    <desc>Created with Sketch.</desc>
    <defs>
        <path d="M18.4558345,50.3666999 C16.4831783,47.8432624 8.36208452,44.9829109 13.4089595,41.0991218 C18.4558345,37.2153327 35.323022,13.7709968 40.9138423,27.4350593 C46.5046626,41.0991218 59.479272,71.1284187 65.6394283,58.5913093 C71.7995845,46.0541999 86.5144283,31.4077155 74.9226314,29.4213874 C67.1947668,28.0971687 58.3477616,30.2032885 48.3816158,35.7397468 C41.1472408,37.4715176 36.1462642,41.1931973 33.3786861,46.9047859 C29.2273189,55.4721687 38.548608,68.0776374 50.1286861,60.462403 C61.7087642,52.8471687 55.6970455,39.9262702 64.5466548,37.0454109 C73.3962642,34.1645515 87.017358,27.1860359 84.9968501,37.0454109 C82.9763423,46.9047859 70.4919673,62.0678718 84.9968501,54.9946296 C99.501733,47.9213874 107.288842,35.212403 101.439233,32.3168952 C95.5896236,29.4213874 96.2156001,20.7163093 90.6062251,29.4213874 C89.2446436,31.5343989 88.7782509,33.8405412 88.7741939,37.0454109 C88.761537,47.0438013 94.1813547,60.462403 98.5896236,60.462403 C104.410913,60.462403 106.347436,70.0854499 110.505639,54.9946296 C114.663842,39.9038093 118.125756,33.0698249 112.467553,31.2456062 C106.80935,29.4213874 98.767358,16.0356452 90.6062251,19.0708015 C82.4450923,22.1059577 77.3415767,33.5278327 69.1804439,33.5278327 C61.0193111,33.5278327 51.1599361,35.3706062 53.642358,29.4213874 C56.1247798,23.4721687 56.2893922,12.1665046 63.6055235,15.618653 C70.9216548,19.0708015 85.1072017,29.4262702 90.6062251,27.4350593 C96.1052486,25.4438484 102.070092,20.0532234 107.792749,21.181153 C113.515405,22.3090827 124.102319,32.2485526 118.284936,35.7397468 C112.467553,39.230941 103.081811,52.9790046 112.467553,52.9790046 C121.853295,52.9790046 131.86892,62.4194343 129.62771,49.0795905 C127.386499,35.7397468 128.777124,24.531739 118.284936,24.531739 C107.792749,24.531739 116.995874,31.3159187 107.792749,33.5278327 C98.5896236,35.7397468 46.6150142,29.3256843 50.1286861,21.181153 C53.642358,13.0366218 58.4206783,6.13427804 73.5974361,9.17334054 C88.7741939,12.212403 113.21853,8.12451241 110.505639,16.9243171 C107.792749,25.7241218 79.1882564,28.0063484 77.0554439,46.9047859 C74.9226314,65.8032234 107.803491,40.8305671 123.670678,46.9047859 C139.537866,52.9790046 140.303491,64.3334968 143.199975,51.4985359 C146.09646,38.6635749 151.981225,37.634278 143.199975,33.5278327 C134.418725,29.4213874 127.302514,8.72021554 116.360131,19.0708015 C105.417749,29.4213874 103.092553,65.4653327 90.6062251,65.4653327 C78.119897,65.4653327 76.0964595,76.7231452 70.8679439,61.8139655 C65.6394283,46.9047859 48.4489986,41.4702155 40.9138423,49.0795905 C33.3786861,56.6889655 29.4255611,64.203614 20.1697017,58.5913093 C10.9138423,52.9790046 -6.22971235,30.3383796 2.32204546,27.4350593 C10.8738033,24.531739 16.6286861,35.7397468 33.3786861,35.7397468 C50.1286861,35.7397468 37.4900142,32.4047859 45.5661861,25.7377937 C53.642358,19.0708015 82.0183345,9.31689523 86.8366939,16.9243171 C91.6550533,24.531739 100.7156,39.3256843 93.776147,44.8461921 C86.8366939,50.3666999 110.699975,15.556153 88.7741939,6.43017648 C66.8484126,-2.69580009 51.1970455,-1.9038079 48.3816158,7.5102546 C45.5661861,16.9243171 53.3640376,46.8325202 69.1804439,44.8461921 C84.9968501,42.859864 124.102319,48.0639655 118.284936,60.462403 C112.467553,72.8608405 113.001733,85.259278 88.7741939,72.8608405 C64.5466548,60.462403 84.7185298,35.092601 69.1804439,37.0454109 C53.642358,38.9982208 45.7693111,30.6997077 40.9138423,41.0991218 C36.0583736,51.4985359 43.1208736,74.219239 48.3816158,74.219239" id="path-1"></path>
        <filter x="-3.9%" y="-7.4%" width="107.8%" height="114.9%" filterUnits="objectBoundingBox" id="filter-2">
            <feGaussianBlur stdDeviation="2.5" in="SourceAlpha" result="shadowBlurInner1"></feGaussianBlur>
            <feOffset dx="0" dy="2" in="shadowBlurInner1" result="shadowOffsetInner1"></feOffset>
            <feComposite in="shadowOffsetInner1" in2="SourceAlpha" operator="arithmetic" k2="-1" k3="1" result="shadowInnerInner1"></feComposite>
            <feColorMatrix values="0 0 0 0 0   0 0 0 0 0   0 0 0 0 0  0 0 0 0.5 0" type="matrix" in="shadowInnerInner1"></feColorMatrix>
        </filter>
        <path d="M23.7956783,60.2534187 C21.823022,57.7299812 13.7019283,54.8696296 18.7488033,50.9858405 C23.7956783,47.1020515 40.6628658,23.6577155 46.2536861,37.321778 C51.8445064,50.9858405 64.8191158,81.0151374 70.979272,68.478028 C77.1394283,55.9409187 91.854272,41.2944343 80.2624751,39.3081062 C72.5346106,37.9838874 63.6876054,40.0900072 53.7214595,45.6264655 C46.4870845,47.3582364 41.486108,51.0799161 38.7185298,56.7915046 C34.5671626,65.3588874 43.8884517,77.9643562 55.4685298,70.3491218 C67.048608,62.7338874 61.0368892,49.812989 69.8864986,46.9321296 C78.736108,44.0512702 92.3572017,37.0727546 90.3366939,46.9321296 C88.3161861,56.7915046 75.8318111,71.9545905 90.3366939,64.8813484 C104.841577,57.8081062 112.628686,45.0991218 106.779077,42.203614 C100.929467,39.3081062 101.555444,30.603028 95.9460689,39.3081062 C94.5844873,41.4211177 94.1180947,43.72726 94.1140376,46.9321296 C94.1013807,56.9305201 99.5211984,70.3491218 103.929467,70.3491218 C109.750756,70.3491218 111.68728,79.9721687 115.845483,64.8813484 C120.003686,49.790528 123.4656,42.9565437 117.807397,41.1323249 C112.149194,39.3081062 104.107202,25.922364 95.9460689,28.9575202 C87.7849361,31.9926765 82.6814205,43.4145515 74.5202876,43.4145515 C66.3591548,43.4145515 56.4997798,45.2573249 58.9822017,39.3081062 C61.4646236,33.3588874 61.6292359,22.0532234 68.9453673,25.5053718 C76.2614986,28.9575202 90.4470455,39.312989 95.9460689,37.321778 C101.445092,35.3305671 107.409936,29.9399421 113.132592,31.0678718 C118.855249,32.1958015 129.442163,42.1352713 123.62478,45.6264655 C117.807397,49.1176598 108.421655,62.8657234 117.807397,62.8657234 C127.193139,62.8657234 137.208764,72.306153 134.967553,58.9663093 C132.726342,45.6264655 134.116967,34.4184577 123.62478,34.4184577 C113.132592,34.4184577 122.335717,41.2026374 113.132592,43.4145515 C103.929467,45.6264655 51.954858,39.212403 55.4685298,31.0678718 C58.9822017,22.9233405 63.760522,16.0209968 78.9372798,19.0600593 C94.1140376,22.0991218 118.558374,18.0112312 115.845483,26.8110359 C113.132592,35.6108405 84.5281001,37.8930671 82.3952876,56.7915046 C80.2624751,75.6899421 113.143335,50.7172859 129.010522,56.7915046 C144.87771,62.8657234 145.643335,74.2202155 148.539819,61.3852546 C151.436303,48.5502937 157.321069,47.5209968 148.539819,43.4145515 C139.758569,39.3081062 132.642358,18.6069343 121.699975,28.9575202 C110.757592,39.3081062 108.432397,75.3520515 95.9460689,75.3520515 C83.4597408,75.3520515 81.4363033,86.609864 76.2077876,71.7006843 C70.979272,56.7915046 53.7888423,51.3569343 46.2536861,58.9663093 C38.7185298,66.5756843 34.7654048,74.0903327 25.5095455,68.478028 C16.2536861,62.8657234 -0.889868602,40.2250984 7.66188921,37.321778 C16.213647,34.4184577 21.9685298,45.6264655 38.7185298,45.6264655 C55.4685298,45.6264655 42.829858,42.2915046 50.9060298,35.6245124 C58.9822017,28.9575202 87.3581783,19.203614 92.1765376,26.8110359 C96.994897,34.4184577 106.055444,49.212403 99.1159908,54.7329109 C92.1765376,60.2534187 116.039819,25.4428718 94.1140376,16.3168952 C72.1882564,7.19091866 56.5368892,7.98291085 53.7214595,17.3969734 C50.9060298,26.8110359 58.7038814,56.719239 74.5202876,54.7329109 C90.3366939,52.7465827 129.442163,57.9506843 123.62478,70.3491218 C117.807397,82.7475593 118.341577,95.1459968 94.1140376,82.7475593 C69.8864986,70.3491218 90.0583736,44.9793197 74.5202876,46.9321296 C58.9822017,48.8849395 51.1091548,40.5864265 46.2536861,50.9858405 C41.3982173,61.3852546 48.4607173,84.1059577 53.7214595,84.1059577" id="path-3"></path>
        <filter x="-3.9%" y="-7.4%" width="107.8%" height="114.9%" filterUnits="objectBoundingBox" id="filter-4">
            <feGaussianBlur stdDeviation="2.5" in="SourceAlpha" result="shadowBlurInner1"></feGaussianBlur>
            <feOffset dx="0" dy="2" in="shadowBlurInner1" result="shadowOffsetInner1"></feOffset>
            <feComposite in="shadowOffsetInner1" in2="SourceAlpha" operator="arithmetic" k2="-1" k3="1" result="shadowInnerInner1"></feComposite>
            <feColorMatrix values="0 0 0 0 0   0 0 0 0 0   0 0 0 0 0  0 0 0 0.5 0" type="matrix" in="shadowInnerInner1"></feColorMatrix>
        </filter>
    </defs>
    <g id="Page-1" stroke="none" stroke-width="1" fill="none" fill-rule="evenodd">
        <g id="noodles" transform="translate(3.000000, 0.000000)">
            <g id="Group-2" transform="translate(121.000000, 0.000000)" fill="#E0A36C">
                <polygon id="Path" points="14.2484511 0 29 4.422506 7.64079926 76 0 76"></polygon>
                <polygon id="Path" points="32.4136557 10 47 14.3699723 21.7260372 75 13 75"></polygon>
            </g>
            <g id="Group-3" transform="translate(0.000000, 33.000000)">
                <path d="M34.4558345,55.3666999 C32.4831783,52.8432624 24.3620845,49.9829109 29.4089595,46.0991218 C34.4558345,42.2153327 51.323022,18.7709968 56.9138423,32.4350593 C62.5046626,46.0991218 75.479272,76.1284187 81.6394283,63.5913093 C87.7995845,51.0541999 102.514428,36.4077155 90.9226314,34.4213874 C83.1947668,33.0971687 74.3477616,35.2032885 64.3816158,40.7397468 C57.1472408,42.4715176 52.1462642,46.1931973 49.3786861,51.9047859 C45.2273189,60.4721687 54.548608,73.0776374 66.1286861,65.462403 C77.7087642,57.8471687 71.6970455,44.9262702 80.5466548,42.0454109 C89.3962642,39.1645515 103.017358,32.1860359 100.99685,42.0454109 C98.9763423,51.9047859 86.4919673,67.0678718 100.99685,59.9946296 C115.501733,52.9213874 123.288842,40.212403 117.439233,37.3168952 C111.589624,34.4213874 112.2156,25.7163093 106.606225,34.4213874 C105.244644,36.5343989 104.778251,38.8405412 104.774194,42.0454109 C104.761537,52.0438013 110.181355,65.462403 114.589624,65.462403 C120.410913,65.462403 122.347436,75.0854499 126.505639,59.9946296 C130.663842,44.9038093 134.125756,38.0698249 128.467553,36.2456062 C122.80935,34.4213874 114.767358,21.0356452 106.606225,24.0708015 C98.4450923,27.1059577 93.3415767,38.5278327 85.1804439,38.5278327 C77.0193111,38.5278327 67.1599361,40.3706062 69.642358,34.4213874 C72.1247798,28.4721687 72.2893922,17.1665046 79.6055235,20.618653 C86.9216548,24.0708015 101.107202,34.4262702 106.606225,32.4350593 C112.105249,30.4438484 118.070092,25.0532234 123.792749,26.181153 C129.515405,27.3090827 140.102319,37.2485526 134.284936,40.7397468 C128.467553,44.230941 119.081811,57.9790046 128.467553,57.9790046 C137.853295,57.9790046 147.86892,67.4194343 145.62771,54.0795905 C143.386499,40.7397468 144.777124,29.531739 134.284936,29.531739 C123.792749,29.531739 132.995874,36.3159187 123.792749,38.5278327 C114.589624,40.7397468 62.6150142,34.3256843 66.1286861,26.181153 C69.642358,18.0366218 74.4206783,11.134278 89.5974361,14.1733405 C104.774194,17.212403 129.21853,13.1245124 126.505639,21.9243171 C123.792749,30.7241218 95.1882564,33.0063484 93.0554439,51.9047859 C90.9226314,70.8032234 123.803491,45.8305671 139.670678,51.9047859 C155.537866,57.9790046 151.207031,68.2016609 154.103516,55.3666999 C157,42.531739 163.853516,32.4350593 156.614258,37.3168952 C149.375,42.1987312 143.302514,13.7202155 132.360131,24.0708015 C121.417749,34.4213874 119.092553,70.4653327 106.606225,70.4653327 C94.119897,70.4653327 92.0964595,81.7231452 86.8679439,66.8139655 C81.6394283,51.9047859 64.4489986,46.4702155 56.9138423,54.0795905 C49.3786861,61.6889655 45.4255611,69.203614 36.1697017,63.5913093 C26.9138423,57.9790046 9.77028765,35.3383796 18.3220455,32.4350593 C26.8738033,29.531739 32.6286861,40.7397468 49.3786861,40.7397468 C66.1286861,40.7397468 53.4900142,37.4047859 61.5661861,30.7377937 C69.642358,24.0708015 98.0183345,14.3168952 102.836694,21.9243171 C107.655053,29.531739 116.7156,44.3256843 109.776147,49.8461921 C102.836694,55.3666999 126.699975,20.556153 104.774194,11.4301765 C82.8484126,2.30419991 67.1970455,3.0961921 64.3816158,12.5102546 C61.5661861,21.9243171 69.3640376,51.8325202 85.1804439,49.8461921 C100.99685,47.859864 140.102319,53.0639655 134.284936,65.462403 C128.467553,77.8608405 129.001733,90.259278 104.774194,77.8608405 C80.5466548,65.462403 100.71853,40.092601 85.1804439,42.0454109 C69.642358,43.9982208 61.7693111,35.6997077 56.9138423,46.0991218 C52.0583736,56.4985359 59.1208736,79.219239 64.3816158,79.219239" id="Path-3-Copy" stroke="#F4EAA5" stroke-width="4.5"></path>
                <g id="Path-3">
                    <use fill="black" fill-opacity="1" filter="url(#filter-2)" xlink:href="#path-1"></use>
                    <use stroke="#F4EAA5" stroke-width="4.5" xlink:href="#path-1"></use>
                </g>
                <g id="Path-3-Copy-2" transform="translate(79.254464, 48.884940) rotate(-186.000000) translate(-79.254464, -48.884940) ">
                    <use fill="black" fill-opacity="1" filter="url(#filter-4)" xlink:href="#path-3"></use>
                    <use stroke="#F4EAA5" stroke-width="4.5" xlink:href="#path-3"></use>
                </g>
            </g>
            <path d="M157.418838,75.0022335 C159.394729,75.0022335 160.997767,76.6059064 161,78.580345 C161,106.416801 146.378412,132.238615 122.665497,146.622534 L122.665497,161.421889 C122.665497,163.400794 121.064691,165 119.0888,165 L43.9111997,165 C41.9353095,165 40.3345035,163.400794 40.3345035,161.421889 L40.3345035,146.622534 C16.6215878,132.236382 2,106.416801 2,78.580345 C2,76.6036729 3.60527129,75 5.58116154,75 L157.418838,75.0022335 Z M47.4923613,157.843777 L115.514337,157.843777 L115.514337,148.45626 L47.4923613,148.45626 L47.4923613,157.843777 Z" id="Shape" fill="#9E2626" fill-rule="nonzero"></path>
        </g>
    </g>
</svg>